<svg width="100" height="100" viewBox="0 0 100 100" fill="none" xmlns="http://www.w3.org/2000/svg">
<path d="M50 6C25.7231 6 6 25.7231 6 50C6 72.0383 22.2551 90.2767 43.4258 93.457L45.7227 93.8047V59.1328H35.3281V52.0938H45.7227V42.7461C45.7227 36.9899 47.1039 33.1988 49.3906 30.8203C51.6773 28.4418 55.056 27.2422 59.7578 27.2422C63.5174 27.2422 64.98 27.47 66.3711 27.6406V33.4023H61.4766C58.6994 33.4023 56.4209 34.9518 55.2383 37.0156C54.0557 39.0794 53.6875 41.5436 53.6875 44.0547V52.0898H65.9336L64.8438 59.1289H53.6875V93.8594L55.957 93.5508C77.4287 90.6387 94 72.2537 94 50C94 25.7231 74.2769 6 50 6ZM50 10C72.1151 10 90 27.8849 90 50C90 69.4596 76.0716 85.4636 57.6875 89.0664V63.1289H68.2734L70.5977 48.0898H57.6875V44.0547C57.6875 41.9797 58.0671 40.1206 58.707 39.0039C59.3469 37.8872 59.9637 37.4023 61.4766 37.4023H70.3711V24.0195L68.6367 23.7852C67.4371 23.6228 64.6984 23.2422 59.7578 23.2422C54.3516 23.2422 49.7111 24.7149 46.5078 28.0469C43.3045 31.3789 41.7227 36.3403 41.7227 42.7461V48.0938H31.3281V63.1328H41.7227V88.9414C23.634 85.1096 10 69.2489 10 50C10 27.8849 27.8849 10 50 10Z" fill="white"/>
</svg>
