<?xml version="1.0" encoding="UTF-8" standalone="no"?><!DOCTYPE svg PUBLIC "-//W3C//DTD SVG 1.1//EN" "http://www.w3.org/Graphics/SVG/1.1/DTD/svg11.dtd"><svg width="100%" height="100%" viewBox="0 0 2555 371" version="1.1" xmlns="http://www.w3.org/2000/svg" xmlns:xlink="http://www.w3.org/1999/xlink" xml:space="preserve" xmlns:serif="http://www.serif.com/" style="fill-rule:evenodd;clip-rule:evenodd;stroke-linejoin:round;stroke-miterlimit:2;"><rect id="ArtBoard1" x="0" y="0" width="2554.17" height="370.833" style="fill:none;"/><g><path d="M30.833,19.167l0,315l72.084,-0l-0,-123.75l113.75,-0l-0,-60.834l-115,0l-0,-69.583l134.583,-0l-0,-60.833l-205.417,-0Zm1848.75,315l70.834,-0l-0,-315l-70.834,-0l0,315Zm201.25,-315l120.417,199.166l0,-199.166l67.5,-0l0,315l-66.25,-0l-124.583,-199.167l-0,199.167l-67.5,-0l-0,-315l70.416,-0Zm239.167,-0l0,315l210.833,-0l0,-60.834l-140,0l0,-70.833l115.417,-0l0,-56.25l-115.417,-0l0,-66.25l135,-0l0,-60.833l-205.833,-0Zm-1923.33,54.583c45.833,-0 68.333,40.417 68.333,102.917c0,62.5 -22.5,102.916 -68.333,102.916c-45.834,0 -68.334,-40.416 -68.334,-102.916c-0.416,-62.5 22.5,-102.917 68.334,-102.917m-141.667,102.917c0,89.166 41.667,163.75 141.667,163.75c99.583,-0 141.666,-74.584 141.666,-163.75c0,-89.167 -41.666,-163.75 -141.666,-163.75c-99.584,-0 -141.667,74.583 -141.667,163.75m697.083,-96.667l15.417,-0c65,-0 93.333,24.583 93.333,96.667c0,72.083 -28.333,96.666 -93.333,96.666l-15.417,0l0,-193.333Zm-70.833,254.167l78.333,-0c107.084,-0 172.917,-45.417 172.917,-157.5c0,-112.084 -65.833,-157.5 -172.917,-157.5l-78.333,-0l0,315Zm623.333,-315l51.667,211.666l60.833,-211.666l54.584,-0l58.75,211.666l50,-211.666l67.5,-0l-84.584,315l-60.416,-0l-61.25,-197.084l-60.834,197.5l-62.916,0l-82.5,-315l69.166,0l0,-0.416Zm-795.416,54.583c45.833,-0 68.333,40.417 68.333,102.917c0,62.5 -22.5,102.916 -68.333,102.916c-45.834,0 -68.334,-40.416 -68.334,-102.916c0,-62.5 22.5,-102.917 68.334,-102.917m-141.25,102.917c-0,89.166 41.666,163.75 141.666,163.75c99.584,-0 141.667,-74.584 141.667,-163.75c0,-89.167 -41.667,-163.75 -141.667,-163.75c-100,-0 -141.666,74.583 -141.666,163.75" style="fill:#fff;fill-opacity:0.95;fill-rule:nonzero;"/><g><path d="M1277.69,321.75c27.5,-0 48.333,-12.917 57.083,-21.667c-18.333,-15.416 -50,-46.25 -58.333,-55.416c-8.334,-9.167 -29.167,-32.084 -36.667,-42.917c-13.75,9.583 -25.833,25.833 -25.833,51.667c0.416,40.833 28.75,68.333 63.75,68.333m-10.834,18.75c-62.916,-0 -84.583,-43.333 -84.583,-71.667c-0,-37.916 28.75,-65.416 51.25,-77.5c-12.917,-17.5 -15.833,-30.833 -16.25,-45.416c-0,-25.417 24.167,-59.584 74.167,-59.584c16.25,0 30.416,3.334 39.166,7.5c4.584,2.084 5,4.167 5,8.334c0,10.416 -2.083,34.583 -2.916,39.583c-0.834,5 -2.084,5.417 -3.75,5.417c-1.667,-0 -2.084,-1.25 -2.084,-6.25c0,-8.334 -2.083,-19.167 -9.583,-27.5c-6.667,-7.5 -17.917,-14.584 -34.167,-14.584c-16.666,0 -37.916,10.834 -37.916,39.584c-0,27.916 22.5,51.25 52.5,84.166c10.833,12.5 50.833,48.75 59.166,56.25c7.917,-10.833 15.834,-32.083 15.834,-51.666c-0,-5 -1.25,-10.834 -6.25,-15.417c-4.167,-4.167 -10.834,-5 -15.834,-5c-2.083,-0 -3.75,-0.833 -3.75,-2.5c0,-2.083 2.5,-2.917 5,-2.917c7.917,0 20.834,0.417 38.75,2.084c5.417,0.833 8.334,2.916 8.334,6.666c-0,25.417 -15.417,57.084 -32.084,76.667c21.667,17.917 35.834,26.667 45,32.083c10.417,6.25 27.5,12.084 36.667,12.084c2.917,-0 4.583,0.416 4.583,2.5c0,1.666 -2.5,2.5 -7.5,2.5l-28.333,-0c-30.417,-0 -40,-2.917 -72.083,-27.917c-8.75,8.75 -32.5,32.5 -78.334,32.5" style="fill:#fff;fill-opacity:0.95;fill-rule:nonzero;"/></g></g></svg>