<?xml version="1.0" encoding="UTF-8" standalone="no"?><!DOCTYPE svg PUBLIC "-//W3C//DTD SVG 1.1//EN" "http://www.w3.org/Graphics/SVG/1.1/DTD/svg11.dtd"><svg width="100%" height="100%" viewBox="0 0 3159 600" version="1.1" xmlns="http://www.w3.org/2000/svg" xmlns:xlink="http://www.w3.org/1999/xlink" xml:space="preserve" xmlns:serif="http://www.serif.com/" style="fill-rule:evenodd;clip-rule:evenodd;stroke-linejoin:round;stroke-miterlimit:2;"><rect id="ArtBoard1" x="0" y="0" width="3158.33" height="600" style="fill:none;"/><clipPath id="_clip1"><rect x="0" y="0" width="3158.33" height="600"/></clipPath><g clip-path="url(#_clip1)"><g id="Layer-1" serif:id="Layer 1"><path d="M1167.44,401.095l-71.763,-0c-2.108,-0 -4.221,-2.113 -4.221,-4.225c0,-4.217 2.113,-6.33 2.113,-10.55c2.108,-4.225 4.217,-8.442 8.437,-12.667c8.446,-8.442 21.109,-12.663 31.663,-12.663c10.554,0 21.104,4.221 27.438,10.555c6.333,6.333 10.554,14.775 10.554,23.212c-0,4.225 -2.113,6.338 -4.221,6.338m42.212,-54.88c-8.446,-8.441 -18.996,-16.887 -29.55,-21.104c-12.662,-6.333 -27.437,-8.446 -40.1,-8.446c-14.775,0 -29.55,2.113 -44.325,8.446c-12.662,4.217 -25.329,12.663 -35.879,21.104c-10.554,8.442 -19,21.109 -23.221,33.771c-12.662,31.659 -12.662,67.542 0,99.2c6.334,12.663 14.775,25.329 23.221,33.771c10.55,10.554 23.217,16.883 35.879,21.104c14.775,4.225 29.55,8.442 44.325,8.442c16.884,-0 33.771,-4.217 48.542,-10.55c12.662,-4.221 23.221,-12.667 31.662,-21.104c4.221,-4.225 4.221,-8.446 0,-12.667l-29.55,-21.108l-2.112,-2.109c-4.221,-2.108 -8.442,-2.108 -10.55,2.109c-4.221,4.225 -8.446,8.446 -12.667,12.666c-8.441,4.221 -16.883,6.334 -25.325,6.334c-10.554,-0 -23.221,-4.225 -31.662,-10.554c-10.55,-10.555 -14.771,-23.221 -16.884,-35.884c0,-2.108 2.113,-4.216 4.221,-4.216l132.971,-0c4.221,-0 8.442,-4.225 8.442,-10.559l-0,-10.554c-0,-14.775 -2.113,-29.55 -6.334,-44.321c-6.329,-12.662 -12.662,-23.216 -21.104,-33.771" style="fill:#fff;fill-rule:nonzero;"/><path d="M1378.5,322.998l-33.771,-0c-2.108,-0 -4.221,-2.113 -4.221,-4.221l0,-14.775c0,-12.662 2.113,-23.217 8.442,-25.329c6.333,-4.221 14.775,-6.329 23.217,-6.329l14.775,-0c4.225,-0 8.446,-4.221 8.446,-8.446l-0,-37.988c-0,-4.22 -4.221,-8.445 -8.446,-8.445l-27.438,-0c-14.775,-0 -27.437,2.112 -40.104,6.333c-10.55,4.221 -16.883,10.554 -23.212,16.887c-6.334,8.442 -10.555,16.884 -10.555,25.325c-2.112,10.555 -2.112,21.109 -2.112,31.659l-0,18.996c-0,2.112 -2.108,4.22 -4.221,4.22l-27.437,0c-4.221,0 -8.442,4.225 -8.442,8.446l-0,31.659c-0,4.22 4.221,8.445 8.442,8.445l27.437,0c2.113,0 4.221,2.109 4.221,4.217l-0,151.971c-0,4.221 4.221,8.437 8.442,10.55l44.325,-0c4.22,-0 8.441,-4.221 8.441,-8.442l0,-151.966c0,-2.113 2.113,-4.221 4.221,-4.221l31.663,-0c4.22,-0 8.441,-4.221 8.441,-8.442l0,-31.662c0,-4.217 -4.221,-8.442 -10.554,-8.442" style="fill:#fff;fill-rule:nonzero;"/><path d="M975.366,221.688c-21.108,-0 -35.883,16.883 -35.883,35.879c-0,21.108 16.887,35.883 35.883,35.883c21.104,0 35.879,-16.887 35.879,-35.883c0,-10.55 -4.22,-18.996 -10.55,-25.325c-6.333,-6.333 -16.887,-10.554 -25.329,-10.554" style="fill:#fff;fill-rule:nonzero;"/><path d="M996.472,322.998l-44.325,-0c-4.221,-0 -8.442,4.225 -10.55,8.442l0,198.404c0,4.216 4.221,8.441 8.442,8.441l44.325,0c4.216,0 8.441,-4.225 8.441,-8.441l0,-198.404c2.109,-4.217 -2.112,-8.442 -6.333,-8.442" style="fill:#fff;fill-rule:nonzero;"/><path d="M1752.08,316.667l-12.662,-0c-12.663,-0 -25.325,2.108 -35.879,8.441c-6.334,4.221 -12.663,10.554 -16.888,16.888l0,2.108l-2.108,2.113c-2.113,-0 -2.113,-2.113 -4.225,-2.113l-0,-12.662c-0,-4.221 -4.217,-8.442 -10.55,-8.442l-44.325,0c-4.221,0 -8.442,4.221 -10.554,8.442l-0,198.4c-0,4.221 4.225,8.441 8.445,8.441l44.321,0c4.221,0 8.446,-4.221 8.446,-8.441l0,-88.646c0,-8.446 0,-18.996 2.108,-27.438c0,-8.446 4.221,-14.775 6.334,-21.108c4.221,-6.329 10.55,-10.554 16.883,-14.775c6.333,-2.108 14.775,-4.221 23.217,-4.221l23.216,0c4.221,0 8.446,-4.221 8.446,-8.446l0,-37.987c4.217,-6.334 0,-10.554 -4.225,-10.554" style="fill:#fff;fill-rule:nonzero;"/><path d="M1532.58,401.095l-71.763,-0c-2.108,-0 -4.221,-2.113 -4.221,-4.225c0,-4.217 2.113,-6.33 2.113,-10.55c2.108,-4.225 4.221,-8.442 8.441,-12.667c4.221,-4.221 8.442,-6.329 12.663,-8.442c6.333,-2.108 12.662,-4.221 19,-4.221c10.55,0 21.104,4.221 27.433,10.555c6.334,6.333 10.554,14.775 10.554,23.212c0,4.225 -2.108,6.338 -4.22,6.338m42.212,-54.88c-8.442,-8.441 -18.996,-16.887 -29.546,-21.104c-12.666,-6.333 -27.437,-8.446 -40.104,-8.446c-14.775,0 -29.55,2.113 -44.325,8.446c-12.662,4.217 -25.325,12.663 -35.879,21.104c-10.554,8.442 -18.996,21.109 -23.217,33.771c-12.666,31.659 -12.666,67.542 0,99.2c6.329,12.663 14.775,25.329 23.217,33.771c10.554,10.554 23.217,16.883 35.879,21.104c14.775,4.225 29.55,8.442 44.325,8.442c16.883,-0 33.771,-4.217 48.546,-10.55c12.662,-4.221 23.217,-12.667 31.658,-21.104c4.221,-4.225 4.221,-8.446 0,-12.667l-29.55,-21.108l-2.108,-2.109c-4.221,-2.108 -8.442,-2.108 -10.554,2.109c-4.221,4.225 -8.442,8.446 -12.663,12.666c-8.446,4.221 -16.887,6.334 -25.329,6.334c-10.554,-0 -23.217,-4.225 -31.658,-10.554c-10.554,-10.555 -14.775,-23.221 -16.888,-35.884c0,-2.108 2.113,-4.216 4.221,-4.216l132.971,-0c4.221,-0 8.446,-4.225 8.446,-10.559l-0,-10.554c-0,-14.775 -2.113,-29.55 -6.334,-44.321c-6.333,-12.662 -12.666,-23.216 -21.108,-33.771" style="fill:#fff;fill-rule:nonzero;"/><path d="M909.937,479.187l-107.642,0c-2.113,0 -4.225,-2.112 -4.225,-4.221l-0,-223.729c-0,-4.221 -4.221,-8.442 -8.442,-10.554l-46.433,-0c-4.221,-0 -8.442,4.221 -8.442,10.554l0,278.604c0,6.334 4.221,10.554 10.55,10.554l166.742,0c4.225,0 8.446,-4.22 10.554,-8.441l0,-42.217c-4.221,-6.329 -6.329,-10.55 -12.662,-10.55" style="fill:#fff;fill-rule:nonzero;"/><path d="M2883.39,468.632c-6.333,16.888 -19,31.663 -35.879,37.992c-19,8.446 -40.104,8.446 -56.992,-0c-16.883,-8.442 -29.546,-21.104 -35.879,-37.992c-6.333,-25.325 -6.333,-50.654 0,-75.979c2.108,-8.446 8.442,-16.888 14.775,-23.221c6.333,-6.329 14.771,-12.662 23.217,-14.775c18.996,-8.442 40.104,-8.442 56.987,0c8.442,4.221 14.771,8.446 21.109,14.775c6.329,6.333 10.55,14.775 14.775,23.221c4.22,25.325 4.22,50.654 -2.113,75.979m27.438,-251.167l-12.663,0c-6.333,0 -10.554,4.221 -10.554,10.555l-0,116.083c-0,2.112 -2.108,2.112 -4.221,2.112l-2.112,0l-2.113,-2.112c-6.329,-6.329 -14.775,-12.663 -25.325,-16.879c-12.667,-6.338 -25.329,-8.446 -40.104,-8.446c-14.775,-0 -29.55,2.108 -42.213,8.446c-12.662,4.216 -23.216,12.662 -33.766,21.104c-8.446,10.55 -16.888,21.104 -21.113,33.767c-10.55,31.662 -10.55,67.541 0,99.204c4.225,12.662 12.667,23.212 21.113,33.771c8.437,8.441 18.991,16.883 31.658,21.104c12.667,6.329 25.329,8.441 37.992,8.441c16.883,0 31.658,-4.216 46.433,-12.662c8.446,-4.221 16.888,-10.554 23.217,-18.996l-0,-2.108l2.108,-2.113c2.113,0 4.225,2.113 4.225,2.113l0,14.775c0,6.329 4.221,10.55 10.55,10.55l14.775,-0c6.338,-0 10.554,-4.221 10.554,-10.55l0,-297.604c2.113,-6.334 -2.112,-10.555 -8.441,-10.555" style="fill:#fff;fill-rule:nonzero;"/><path d="M3098.68,409.534l-116.088,-0c-2.108,-0 -4.221,-2.109 -4.221,-4.221c2.113,-14.775 8.442,-31.658 18.996,-40.104c12.667,-10.55 27.442,-16.879 44.321,-14.775c16.888,-0 31.662,4.225 44.325,14.775c10.554,8.446 14.775,25.329 16.888,40.104c-0,2.112 -2.113,4.221 -4.221,4.221m33.766,-31.659c-4.216,-12.666 -10.554,-23.216 -18.991,-33.77c-8.442,-8.442 -19,-16.884 -29.55,-21.109c-12.667,-4.221 -25.329,-6.329 -37.992,-6.329c-14.775,0 -27.437,2.108 -40.104,8.442c-12.663,4.221 -23.217,12.662 -31.658,21.108c-8.442,10.554 -16.884,21.104 -21.109,33.767c-4.221,14.775 -8.441,31.662 -8.441,48.55c-0.001,16.883 2.108,33.766 6.333,50.654c4.221,12.662 10.55,23.217 18.996,33.767c8.441,10.554 18.995,16.887 31.658,23.22c12.662,6.33 27.438,8.442 42.213,8.442c16.887,0 33.774,-2.112 48.545,-8.442c12.667,-6.333 23.217,-14.775 33.771,-25.329c2.113,-4.221 2.113,-8.441 -2.112,-12.666l-10.55,-8.442c-4.225,-2.108 -8.442,-2.108 -12.667,-0c-14.775,16.887 -35.879,25.329 -59.1,25.329c-8.438,0 -16.879,-2.112 -25.325,-4.221c-8.442,-4.221 -14.775,-8.441 -18.996,-14.771c-6.333,-6.337 -10.554,-12.67 -14.771,-21.112c-4.225,-10.55 -6.337,-21.104 -6.337,-31.658c-0,-2.109 2.112,-4.221 4.225,-4.221l145.633,-0c4.221,-0 8.442,-4.221 10.554,-8.442l0,-2.108c2.109,-19 -0.004,-33.775 -4.225,-50.659" style="fill:#fff;fill-rule:nonzero;"/><path d="M2684.99,493.962c-6.333,-0 -12.666,2.112 -16.887,6.333c-8.442,8.442 -8.442,23.217 2.112,31.658c8.442,8.446 23.217,8.446 31.659,0c8.441,-8.441 8.441,-23.216 -0,-31.658c-4.221,-4.221 -10.55,-6.333 -16.884,-6.333" style="fill:#fff;fill-rule:nonzero;"/><path d="M1895.61,462.3c-0,10.555 -4.221,21.105 -14.775,27.438c-4.221,4.225 -10.555,6.333 -14.775,6.333c-6.33,2.109 -12.663,2.109 -16.888,2.109c-6.329,-0 -14.771,-2.109 -21.104,-4.217c-6.329,-2.113 -10.55,-8.446 -10.55,-16.888c-0,-6.333 2.108,-12.662 6.329,-16.883c4.221,-4.225 10.554,-6.333 16.883,-8.442c6.338,-2.112 12.667,-4.225 21.113,-4.225l27.433,0c2.113,0 4.221,2.113 4.221,4.225l2.113,10.55Zm37.991,-116.083c-8.441,-8.446 -16.887,-16.887 -29.55,-21.108c-14.775,-4.221 -29.546,-8.442 -44.321,-6.334c-16.887,0 -33.775,2.113 -48.55,8.446c-12.662,4.221 -23.212,10.55 -33.766,18.996c-4.221,4.217 -4.221,10.554 -0,12.663l18.991,18.995c4.225,4.221 10.559,4.221 12.667,0c4.221,-4.22 10.554,-8.441 14.775,-10.554c8.446,-4.221 18.996,-6.329 27.438,-6.329c10.558,0 21.108,4.217 27.437,10.554c6.333,6.329 10.554,16.884 12.667,33.767c-0,2.112 -2.113,4.221 -4.221,4.221l-23.221,-0c-10.55,-0 -21.104,2.112 -29.546,2.112c-10.554,2.113 -18.996,4.221 -29.55,6.329c-8.446,2.113 -16.883,6.334 -25.325,12.667c-6.333,4.221 -12.666,12.663 -16.887,21.108c-4.221,8.442 -6.334,18.992 -6.334,29.55c0,8.442 2.113,18.992 6.334,27.438c4.221,8.442 8.441,14.771 14.775,18.992c6.329,6.333 14.775,8.441 23.216,12.666c8.442,2.109 18.996,4.221 27.438,4.221c12.662,0 25.329,-2.112 35.879,-6.333c8.446,-4.221 16.888,-10.554 23.221,-16.884l4.217,0l-0,8.442c-0,4.225 4.225,8.442 8.445,8.442l40.105,-0c4.216,-0 8.441,-4.221 8.441,-8.442l0,-94.979c0,-18.996 -2.112,-37.992 -4.225,-56.988c2.113,-10.554 -4.216,-23.216 -10.55,-31.658" style="fill:#fff;fill-rule:nonzero;"/><path d="M2157.33,344.104c-6.333,-8.441 -12.662,-16.883 -23.212,-21.104c-12.667,-6.333 -25.329,-8.442 -37.992,-8.442c-6.333,0 -14.775,0 -21.108,2.109c-6.333,2.108 -12.667,4.221 -16.888,8.441c-4.22,2.113 -8.441,6.334 -12.662,10.555l-4.221,4.22c-2.112,2.113 -4.221,2.113 -4.221,0l0,-10.554c0,-6.329 -4.225,-10.554 -10.554,-10.554l-42.212,0c-6.334,0 -10.555,4.225 -10.555,10.554l0,198.4c0,4.225 4.221,8.446 10.555,8.446l44.325,0c4.216,0 8.441,-4.221 10.55,-8.446l-0,-105.529c-0,-6.329 -0,-12.667 2.112,-18.996c0,-6.333 2.108,-10.554 4.221,-16.883c2.108,-4.225 6.333,-8.446 10.554,-12.667c6.329,-2.108 12.663,-4.221 18.996,-4.221c12.662,-2.112 25.325,6.334 29.55,18.996c2.108,6.329 4.221,10.554 4.221,16.883l-0,122.417c-0,4.225 4.216,8.446 10.554,8.446l44.325,0c4.217,0 8.437,-4.221 10.55,-8.446l-0,-116.083c-0,-12.663 -0,-25.325 -2.113,-37.992c-4.22,-8.446 -8.437,-18.996 -14.775,-29.55" style="fill:#fff;fill-rule:nonzero;"/><path d="M2340.96,474.967c-21.109,18.996 -52.767,18.996 -73.871,0c-8.446,-8.441 -12.671,-29.55 -12.671,-44.325c0,-14.775 4.225,-33.77 12.671,-42.216c21.104,-18.992 52.762,-18.992 73.871,-0c8.437,10.558 12.662,27.441 12.662,42.216c0,14.775 -4.225,33.771 -12.662,44.325m61.204,-253.279l-44.321,0c-4.221,0 -8.446,4.221 -8.446,8.442l0,105.529c0,2.113 -2.104,2.113 -4.216,2.113c-0,-0 -2.113,-0 -2.113,-2.113c-6.333,-6.329 -12.662,-10.55 -21.108,-12.662c-12.663,-4.221 -25.325,-6.33 -35.879,-6.33c-12.663,0 -27.438,2.109 -37.992,8.442c-10.55,6.333 -21.104,14.775 -29.55,23.217c-8.442,10.554 -14.775,21.108 -18.992,33.771c-8.446,31.662 -8.446,63.32 0,94.979c4.217,12.662 10.55,23.216 21.104,33.771c8.442,8.441 18.996,16.883 31.663,21.108c12.662,6.329 27.437,8.442 40.1,8.442c6.329,-0 14.775,-0 21.104,-2.113c6.333,-2.112 12.663,-4.221 19,-8.442c4.217,-2.112 10.55,-6.333 14.775,-10.554l4.217,-4.221l-0,-2.112l2.112,-0c2.109,-0 2.109,2.112 4.221,2.112l0,8.442c0,4.221 4.221,8.446 8.442,8.446l40.104,-0c4.221,-0 8.442,-4.225 8.442,-10.554l-0,-289.159c-2.109,-6.333 -6.334,-10.554 -12.667,-10.554" style="fill:#fff;fill-rule:nonzero;"/><path d="M2577.35,479.187c-21.104,18.996 -52.763,18.996 -73.871,0c-8.442,-8.442 -12.667,-27.437 -12.667,-44.325c0,-14.775 4.225,-33.767 12.667,-44.321c21.108,-18.996 52.767,-18.996 73.871,0c8.442,8.442 12.667,27.438 12.667,44.321c-0,14.775 -4.225,33.771 -12.667,44.325m42.217,-128.75c-10.555,-10.554 -23.217,-16.883 -35.88,-21.108c-29.55,-10.554 -59.1,-10.554 -88.65,-0c-12.666,4.225 -25.329,12.666 -35.883,21.108c-10.55,8.442 -18.996,21.108 -23.212,33.771c-12.671,31.662 -12.671,67.542 -0,99.2c6.329,12.667 14.77,25.329 23.212,33.771c10.554,10.55 23.217,16.883 35.883,21.108c29.55,10.55 59.1,10.55 88.65,0c12.663,-4.225 25.325,-12.662 35.88,-21.108c10.55,-8.442 18.991,-21.104 23.216,-33.771c12.663,-31.658 12.663,-67.538 0,-99.2c-4.225,-12.663 -12.666,-23.217 -23.216,-33.771" style="fill:#fff;fill-rule:nonzero;"/><path d="M287.295,27.509c10.554,-8.442 25.329,-8.442 37.991,-0c29.546,18.996 56.988,37.991 82.317,59.096c-0,-0 6.329,4.22 8.442,-4.221c-0,-0 -2.113,-25.329 2.108,-33.771c2.112,-6.333 8.446,-10.55 14.775,-10.55c-0,-0 31.658,2.108 52.767,4.217c8.441,2.112 16.883,8.445 16.883,18.995c-0,0 12.667,88.65 16.887,120.313c0,-0 2.113,16.883 25.33,44.321c-0,-0 48.541,67.541 52.762,80.204c0,-0 10.554,23.217 -12.662,25.329c-0,0 -44.321,4.221 -48.546,4.221c-6.329,-0 -10.55,6.333 -10.55,12.667c-0,-0 -2.113,154.075 -12.667,230.054c0,-0 -2.108,29.55 -18.996,29.55c0,-0 -44.325,-2.109 -54.875,-2.109c0,0 -4.225,0 -4.225,-6.329c0,0 23.221,-242.725 6.338,-363.033c-0,-0 -0,-14.775 -12.667,-18.996c0,0 -10.554,-4.221 -21.104,10.554c-0,0 -71.767,90.754 -71.767,217.396c0,0 -2.108,37.992 4.225,48.546c0,-0 4.221,6.329 23.217,8.442l23.217,4.22c-0,0 4.22,0 4.22,6.33c0,-0 -4.22,71.766 -6.333,84.429c0,2.112 0,6.333 -2.108,8.441c-0,0 -0,2.109 -8.442,2.109l-116.087,-0c-0,-0 -4.221,-0 -6.334,-2.109c-2.108,-2.108 -6.329,-90.758 -6.329,-103.42c0,-2.113 2.108,-4.225 4.221,-6.33c16.883,-10.558 27.437,-27.441 29.55,-46.437c-0,-0 2.108,-6.329 -0,-40.104c-0,-0 4.221,-135.079 4.221,-158.296c-0,-0 -0,-6.333 -8.446,-8.446c-4.221,0 -8.442,2.113 -10.55,6.333c-0,0 -6.333,88.646 -4.221,124.53c0,-0 2.108,23.216 -14.775,23.216c0,0 -14.775,2.113 -16.887,-16.887c-0,-0 2.112,-86.534 4.22,-130.859c0,-4.22 -4.22,-8.441 -10.554,-8.441c-4.221,-0 -10.55,2.108 -10.55,8.441c0,0 -6.333,84.43 -4.225,126.642c0,0 2.113,21.104 -14.771,21.104c0,0 -14.775,2.113 -14.775,-16.887c0,-0 4.221,-120.304 4.221,-128.746c0,-6.333 -4.221,-10.554 -8.441,-10.554c-4.221,-0 -10.555,2.108 -10.555,8.441c0,0 -6.333,143.525 -4.22,185.738c-0,-0 -0,42.212 31.658,61.212c-0,0 4.221,2.105 4.221,6.33c-0,-0 4.225,75.979 6.333,99.2c0,-0 2.108,6.329 -4.221,6.329l-78.096,4.225c0,-0 -12.662,-0 -16.883,-14.775c-2.108,-14.775 -16.883,-141.413 -14.775,-242.725c0,-6.329 -4.221,-12.663 -10.554,-12.663c-0,0 -40.1,-4.225 -50.654,-6.333c-8.442,-2.108 -14.775,-12.667 -12.667,-21.104c0,-2.113 0,-2.113 2.113,-4.225c-0,-0 88.645,-168.85 272.275,-282.825" style="fill:#fff;fill-rule:nonzero;"/></g></g></svg>