<?xml version="1.0" encoding="UTF-8" standalone="no"?><!DOCTYPE svg PUBLIC "-//W3C//DTD SVG 1.1//EN" "http://www.w3.org/Graphics/SVG/1.1/DTD/svg11.dtd"><svg width="100%" height="100%" viewBox="0 0 4109 1317" version="1.1" xmlns="http://www.w3.org/2000/svg" xmlns:xlink="http://www.w3.org/1999/xlink" xml:space="preserve" xmlns:serif="http://www.serif.com/" style="fill-rule:evenodd;clip-rule:evenodd;stroke-linejoin:round;stroke-miterlimit:2;"><rect id="ArtBoard1" x="0" y="0" width="4108.33" height="1316.67" style="fill:none;"/><g><path d="M1821.14,76.258c0,-3.193 2.595,-5.887 5.887,-5.887l35.319,0c16.363,0 29.633,13.37 29.633,29.732l-0,324.161l185.975,-0c3.293,-0 5.887,2.594 5.887,5.886l0,55.773c0,3.292 -2.594,5.986 -5.887,5.986l-238.356,0c-10.121,-0.011 -18.447,-8.336 -18.458,-18.458l0,-397.193Zm294.119,-1.617c0,-3.192 2.594,-5.786 5.887,-5.786l58.466,-0c3.293,-0 5.887,2.594 5.887,5.786l0,58.667c0,3.229 -2.657,5.886 -5.887,5.886l-58.466,0c-3.229,0 -5.887,-2.657 -5.887,-5.886l0,-58.667Zm0,115.237c0,-3.192 2.594,-5.886 5.887,-5.886l58.466,-0c3.293,-0 5.887,2.694 5.887,5.886l0,296.125c0,3.292 -2.594,5.886 -5.887,5.886l-58.466,0c-0.017,0 -0.033,0.001 -0.05,0.001c-3.202,-0 -5.837,-2.635 -5.837,-5.837c0,-0.017 0,-0.034 0,-0.05l0,-296.125Zm235.084,37.984c-0,-4.59 -3.791,-8.381 -8.381,-8.381l-54.675,-0l-0,-35.619c-0,-24.644 20.054,-44.698 44.598,-44.698l17.76,0c4.589,0 8.38,-3.691 8.38,-8.281l0,-53.478c0,-4.689 -3.791,-8.381 -8.38,-8.381l-18.658,0c-62.856,0 -113.84,50.984 -113.84,113.84l-0,300.614c-0,4.69 3.691,8.381 8.381,8.381l53.478,0c4.543,0 8.281,-3.738 8.281,-8.281c0,-0.033 0,-0.066 -0,-0.1l-0,-201.54l54.675,0c4.59,0 8.381,-3.791 8.381,-8.381l-0,-45.695Zm361.066,202.937c-1.25,-1.989 -1.646,-4.401 -1.097,-6.685c0.623,-2.286 2.182,-4.206 4.29,-5.288l47.591,-24.843c3.792,-1.996 8.481,-0.798 10.875,2.694c17.76,26.14 44.798,41.206 79.22,41.206c39.011,-0 59.165,-20.154 59.165,-42.903c-0,-26.04 -37.714,-31.827 -78.721,-40.308c-55.174,-11.673 -112.443,-29.931 -112.443,-96.879c-0,-51.382 48.788,-98.874 125.513,-98.176c56.272,0 99.074,20.753 125.115,55.175c1.496,1.895 1.995,4.39 1.496,6.784c-0.496,2.363 -1.988,4.4 -4.09,5.587l-43.202,23.746c-3.572,2.025 -8.133,1.129 -10.675,-2.095c-15.265,-19.356 -39.011,-31.329 -68.644,-31.329c-37.115,0 -55.872,18.159 -55.872,39.011c-0,23.447 29.832,29.932 76.725,40.308c53.278,11.674 113.74,29.234 113.74,96.879c0,44.898 -39.011,105.36 -131.3,104.662c-63.954,-0 -109.75,-24.345 -137.686,-67.546m295.795,-356.806c0,-1.597 0.699,-3.093 1.696,-4.191c1.163,-1.088 2.698,-1.695 4.29,-1.696l35.12,0.699c16.163,0.299 29.134,13.569 29.134,29.732l-0,68.144l54.575,0c4.69,0 8.381,3.792 8.381,8.381l0,45.696c0,4.689 -3.691,8.381 -8.381,8.381l-54.575,-0l-0,129.405c-0,58.566 4.09,66.947 58.666,67.645c3.193,0 5.787,2.594 5.787,5.887l-0,53.877c-0,3.292 -2.594,5.886 -5.887,5.886l-4.49,0c-98.874,0 -124.316,-31.129 -124.316,-132.597l0,-285.249Zm233.936,514.875c-0.926,2.3 -0.665,4.913 0.699,6.984c1.297,1.996 3.691,3.293 6.186,3.293l45.296,-0c9.08,-0 17.161,-5.488 20.653,-13.769l168.117,-407.071c1.099,-2.554 0.796,-5.504 -0.799,-7.782c-1.497,-2.352 -4.096,-3.783 -6.884,-3.792l-55.374,0c-3.392,0 -6.385,2.095 -7.682,5.288l-87.6,220.397l-92.788,-220.596c-1.356,-3.081 -4.416,-5.082 -7.783,-5.089l-56.371,0c-2.893,0 -5.488,1.497 -7.084,3.792c-1.532,2.386 -1.758,5.393 -0.599,7.981l129.405,296.424l-47.392,113.94Zm260.516,-511.862c-0,-4.689 3.791,-8.381 8.381,-8.381l31.428,0c16.462,0 29.832,13.27 29.832,29.732l-0,385.121c-0,4.59 -3.791,8.381 -8.481,8.381l-52.779,0c-4.588,-0.027 -8.354,-3.793 -8.381,-8.381l-0,-406.472Zm-970.236,83.19c-95.582,0 -169.015,74.829 -169.015,170.411c0,53.977 22.649,101.07 61.261,131.6c28.634,23.447 65.55,36.616 107.155,36.118c1.098,-0 2.095,0.099 3.293,0.099c92.588,0 143.871,-62.756 156.941,-96.579c0.814,-2.305 0.48,-4.865 -0.897,-6.885c-1.388,-2.052 -3.708,-3.287 -6.186,-3.292l-58.666,-0c-2.595,-0 -5.089,1.297 -6.685,3.392c-49.487,65.152 -171.708,54.775 -189.268,-41.705l260.805,0c4.689,0 8.38,-3.791 8.38,-8.38l0,-18.957c0,-96.181 -70.838,-165.822 -167.118,-165.822m-98.775,133.994c12.971,-42.902 50.684,-72.833 98.775,-72.833c50.085,-0 85.904,26.04 96.28,72.833l-195.055,0Zm1331.64,-133.994c-95.483,0 -169.015,74.829 -169.015,170.411c0,53.977 22.649,101.07 61.26,131.6c28.635,23.447 65.551,36.616 107.156,36.118c1.107,-0 2.095,0.099 3.302,0.099c92.589,0 143.872,-62.756 156.942,-96.579c0.813,-2.305 0.48,-4.865 -0.898,-6.885c-1.387,-2.052 -3.708,-3.287 -6.186,-3.292l-58.666,-0c-2.608,0.015 -5.058,1.277 -6.585,3.392c-49.586,65.152 -171.808,54.775 -189.368,-41.705l260.805,0c4.69,0 8.381,-3.791 8.381,-8.38l0,-18.957c0,-96.181 -70.838,-165.822 -167.118,-165.822m-98.775,133.994c12.97,-42.902 50.684,-72.833 98.775,-72.833c50.085,-0 85.904,26.04 96.28,72.833l-195.055,0Z" style="fill:#fff;fill-rule:nonzero;"/><clipPath id="_clip1"><rect x="85.187" y="68.106" width="3846.32" height="1188.79"/></clipPath><g clip-path="url(#_clip1)"><path d="M1820.19,676.139c-0,-6.685 5.387,-11.973 11.972,-11.973l330.746,0c6.485,0 11.873,5.288 11.873,11.873l-0,23.147c-0,26.24 -21.352,47.492 -47.492,47.492l-219.799,-0l0,167.418l231.672,-0c6.585,-0 11.873,5.288 11.873,11.873l-0,58.766c-0,6.485 -5.288,11.873 -11.873,11.873l-231.672,-0l0,240.351c0,6.585 -5.387,11.973 -11.972,11.973l-63.356,-0c-6.585,-0 -11.972,-5.388 -11.972,-11.973l-0,-560.82Zm369.247,280.4c0,-165.822 133.795,-300.414 299.616,-300.414c166.52,-0 300.315,134.592 300.315,300.414c0,165.822 -133.795,300.415 -300.315,300.415c-165.821,-0 -299.616,-134.593 -299.616,-300.415m512.63,0c0,-118.529 -92.888,-216.306 -213.014,-216.306c-119.427,-0 -212.315,97.777 -212.315,216.306c-0,118.53 92.888,215.409 212.315,215.409c120.126,-0 213.014,-96.879 213.014,-215.409m119.298,0c0,-165.822 133.795,-300.414 299.616,-300.414c166.521,-0 300.315,134.592 300.315,300.414c0,165.822 -133.794,300.415 -300.315,300.415c-165.821,-0 -299.616,-134.593 -299.616,-300.415m512.63,0c0,-118.529 -92.888,-216.306 -213.014,-216.306c-119.427,-0 -212.315,97.777 -212.315,216.306c-0,118.53 92.888,215.409 212.315,215.409c120.126,-0 213.014,-96.879 213.014,-215.409m128.108,-280.51c0,-6.585 5.288,-11.873 11.873,-11.873l149.858,0c189.867,0 306.9,126.611 306.9,292.333c-0,166.62 -128.208,292.433 -303.607,292.433l-153.151,-0c-0.01,-0 -0.02,-0 -0.03,-0c-6.497,-0 -11.843,-5.346 -11.843,-11.843c0,-0.01 0,-0.02 0,-0.03l0,-561.02Zm87.301,68.244l-0,423.734l68.843,-0c134.593,-0 224.288,-91.292 224.288,-211.518c0,-122.52 -80.915,-212.216 -227.381,-212.216l-65.75,0Zm-1868.11,-244.951c11.787,-11.834 11.787,-31.257 -0,-43.091l-376.641,-376.541c-5.677,-5.744 -13.425,-8.98 -21.501,-8.98c-8.076,0 -15.824,3.236 -21.501,8.98l-348.804,348.704l-187.372,-187.472c-128.807,-128.806 -337.83,-128.806 -466.636,-0l-164.524,164.624c-5.795,5.772 -9.055,13.622 -9.055,21.801c-0,8.178 3.26,16.028 9.055,21.8l796.981,796.981c8.98,8.98 22.15,11.175 33.224,6.685c3.844,-1.554 7.338,-3.86 10.277,-6.784l746.497,-746.707Z" style="fill:#fff;fill-rule:nonzero;"/></g></g></svg>