<svg width="100" height="100" viewBox="0 0 100 100" fill="none" xmlns="http://www.w3.org/2000/svg">
<path d="M50 0C24.6191 0 4 20.6191 4 46C4 54.1582 6.23738 61.7718 9.96875 68.418L4.07422 89.4609C3.98005 89.7977 3.97579 90.1532 4.06188 90.4921C4.14796 90.831 4.32138 91.1414 4.56484 91.3924C4.8083 91.6433 5.11329 91.8261 5.44941 91.9224C5.78553 92.0188 6.14103 92.0253 6.48047 91.9414L28.4219 86.5039C34.8693 89.9459 42.1852 92 50 92C75.3809 92 96 71.3809 96 46C96 20.6191 75.3809 0 50 0ZM50 4C73.2191 4 92 22.7809 92 46C92 69.2191 73.2191 88 50 88C42.556 88 35.5842 86.0593 29.5234 82.668C29.0802 82.4203 28.5593 82.3505 28.0664 82.4727L8.85156 87.2344L14.0039 68.8516C14.0776 68.5918 14.098 68.3198 14.0638 68.0519C14.0295 67.784 13.9414 67.5259 13.8047 67.293C10.1214 61.0472 8 53.7802 8 46C8 22.7809 26.7809 4 50 4ZM33.2852 22C32.0031 22 30.1721 22.477 28.668 24.0977C27.7645 25.0711 24 28.739 24 35.1875C24 41.9105 28.6628 47.7117 29.2266 48.457H29.2305V48.4609C29.177 48.3907 29.9461 49.5044 30.9727 50.8398C31.9993 52.1753 33.4348 53.9293 35.2383 55.8281C38.8452 59.6258 43.9166 64.0148 50.2109 66.6992C53.1096 67.9336 55.3964 68.6788 57.1289 69.2227C60.3397 70.2309 63.2641 70.0776 65.4609 69.7539C67.1053 69.5117 68.9138 68.7222 70.7031 67.5898C72.4925 66.4575 74.2462 65.0494 75.0195 62.9102C75.5735 61.3765 75.8552 59.9592 75.957 58.793C76.0079 58.2099 76.0144 57.6952 75.9766 57.2188C75.9386 56.7423 75.9792 56.3773 75.5352 55.6484C74.604 54.1196 73.5495 54.0797 72.4492 53.5352C71.8379 53.2326 70.0973 52.3827 68.3516 51.5508C66.6078 50.7198 65.0978 49.9839 64.168 49.6523C63.5805 49.441 62.8631 49.1367 61.8281 49.2539C60.7931 49.3711 59.7709 50.1179 59.1758 51C58.6117 51.8361 56.3408 54.5167 55.6484 55.3047C55.6392 55.2991 55.6993 55.3268 55.4258 55.1914C54.5695 54.7676 53.5223 54.4073 51.9727 53.5898C50.423 52.7724 48.4845 51.5653 46.3633 49.6953V49.6914C43.2061 46.9119 40.9945 43.4222 40.2969 42.25C40.3439 42.1941 40.2913 42.2618 40.3906 42.1641L40.3945 42.1602C41.1076 41.4578 41.7395 40.619 42.2734 40.0039C43.0305 39.1317 43.3646 38.3629 43.7266 37.6445C44.4479 36.2129 44.0463 34.6375 43.6289 33.8086V33.8047C43.6577 33.862 43.4031 33.3003 43.1289 32.6523C42.8539 32.0025 42.5033 31.1601 42.1289 30.2617C41.3801 28.465 40.5441 26.4498 40.0469 25.2695V25.2656C39.4612 23.8754 38.6688 22.8738 37.6328 22.3906C36.5968 21.9074 35.6816 22.0448 35.6445 22.043H35.6406C34.9013 22.0089 34.0901 22 33.2852 22ZM33.2852 26C34.0562 26 34.8164 26.0094 35.4531 26.0391C36.1081 26.0717 36.0674 26.0744 35.9414 26.0156C35.8134 25.9559 35.9871 25.9366 36.3594 26.8203C36.8462 27.976 37.6863 29.9985 38.4375 31.8008C38.8131 32.7019 39.1646 33.5476 39.4453 34.2109C39.726 34.8742 39.8782 35.2446 40.0547 35.5977V35.6016L40.0586 35.6055C40.2317 35.947 40.2164 35.7283 40.1562 35.8477C39.7342 36.6853 39.6769 36.891 39.25 37.3828C38.6 38.1317 37.9369 38.9668 37.5859 39.3125C37.2789 39.6141 36.7248 40.0841 36.3789 41.0039C36.0324 41.9252 36.1941 43.1891 36.75 44.1328C37.4901 45.3892 39.9288 49.3586 43.7188 52.6953C46.1055 54.7994 48.3291 56.1919 50.1055 57.1289C51.8818 58.0659 53.3286 58.6132 53.6523 58.7734C54.4211 59.1539 55.2613 59.4493 56.2383 59.332C57.2153 59.2147 58.0576 58.622 58.5938 58.0156L58.5977 58.0117C59.3113 57.2027 61.4317 54.7815 62.4492 53.2891C62.4923 53.3043 62.4782 53.2925 62.8164 53.4141V53.418H62.8203C62.9747 53.4729 64.9086 54.3385 66.6328 55.1602C68.3571 55.9818 70.1071 56.8358 70.6758 57.1172C71.4965 57.5233 71.8842 57.7878 71.9844 57.7891C71.9911 57.965 71.998 58.1557 71.9727 58.4453C71.9025 59.2486 71.6878 60.3605 71.2578 61.5508C71.0472 62.1335 69.95 63.3353 68.5664 64.2109C67.1828 65.0866 65.4987 65.705 64.875 65.7969C62.9998 66.0732 60.7733 66.1741 58.3281 65.4062C56.6327 64.8741 54.5186 64.1852 51.7812 63.0195C46.2296 60.6519 41.5112 56.623 38.1406 53.0742C36.4553 51.2998 35.1051 49.648 34.1445 48.3984C33.1857 47.1512 32.7671 46.5021 32.418 46.043L32.4141 46.0391C31.7944 45.2196 28 39.9417 28 35.1875C28 30.156 30.337 28.1829 31.6016 26.8203C32.2654 26.105 32.9912 26 33.2852 26Z" fill="white"/>
</svg>
